# xmcd
#
# Track frame offsets: 
#        150
#        17560
#        29567
#        41540
#        59240
#        83887
#        100122
#        116582
#        139910
#        153482
#        171640
#        182247
#
# Disc length: 2653 seconds
#
# Revision: 2
# Processed by: cddbd v1.5.1PL2 Copyright (c) Steve Scherf et al.
# Submitted via: ExactAudioCopy v0.95b3
#
DISCID=aa0a5b0c
DTITLE=Freud, Marx, Engels and Jung - Siunattu hulluus
DYEAR=1989
DGENRE=Country
TTITLE0=Drai vodkaa
TTITLE1=Viski and naiset
TTITLE2=Rakkauden kirkas valo
TTITLE3=Elama on aika tulsaa
TTITLE4=Sunnuntaiaamun kadut
TTITLE5=Kylmä sää
TTITLE6=Akneboppin'
TTITLE7=Nälkäinen koira
TTITLE8=Jotkut päivät on kultaa
TTITLE9=Töölööseen
TTITLE10=Ei ei laulu
TTITLE11=Maria Doloresin häävalssi
EXTD=
EXTT0=
EXTT1=
EXTT2=
EXTT3=
EXTT4=
EXTT5=
EXTT6=
EXTT7=
EXTT8=
EXTT9=
EXTT10=
EXTT11=
PLAYORDER=
